<svg xmlns="http://www.w3.org/2000/svg" viewBox="0 0 1920 1080">
  <!-- Background -->
  <rect width="1920" height="1080" fill="#0a0a0a"/>
  
  <!-- Gradient overlay -->
  <defs>
    <linearGradient id="bgGradient" x1="0%" y1="0%" x2="100%" y2="100%">
      <stop offset="0%" style="stop-color:#1a1a1a;stop-opacity:1" />
      <stop offset="50%" style="stop-color:#0a0a0a;stop-opacity:1" />
      <stop offset="100%" style="stop-color:#1a1a1a;stop-opacity:1" />
    </linearGradient>
    <linearGradient id="logoGradient" x1="0%" y1="0%" x2="100%" y2="100%">
      <stop offset="0%" style="stop-color:#6366f1;stop-opacity:1" />
      <stop offset="100%" style="stop-color:#8b5cf6;stop-opacity:1" />
    </linearGradient>
    <filter id="glow">
      <feGaussianBlur stdDeviation="10" result="coloredBlur"/>
      <feMerge> 
        <feMergeNode in="coloredBlur"/>
        <feMergeNode in="SourceGraphic"/>
      </feMerge>
    </filter>
  </defs>
  
  <rect width="1920" height="1080" fill="url(#bgGradient)"/>
  
  <!-- Central logo circle -->
  <circle cx="960" cy="540" r="150" fill="url(#logoGradient)" filter="url(#glow)" opacity="0.8"/>
  
  <!-- Robot head design -->
  <g transform="translate(960, 540)">
    <!-- Head -->
    <rect x="-80" y="-80" width="160" height="120" rx="20" fill="url(#logoGradient)" opacity="0.9"/>
    
    <!-- Eyes -->
    <circle cx="-30" cy="-30" r="15" fill="#ffffff" opacity="0.9"/>
    <circle cx="30" cy="-30" r="15" fill="#ffffff" opacity="0.9"/>
    <circle cx="-30" cy="-30" r="8" fill="#6366f1"/>
    <circle cx="30" cy="-30" r="8" fill="#6366f1"/>
    
    <!-- Mouth/speaker -->
    <rect x="-40" y="10" width="80" height="20" rx="10" fill="#ffffff" opacity="0.7"/>
    <rect x="-35" y="13" width="70" height="14" rx="7" fill="#6366f1" opacity="0.8"/>
    
    <!-- Antenna -->
    <line x1="0" y1="-80" x2="0" y2="-120" stroke="#6366f1" stroke-width="4" opacity="0.8"/>
    <circle cx="0" cy="-120" r="8" fill="#6366f1" opacity="0.8"/>
  </g>
  
  <!-- Play button overlay -->
  <g transform="translate(960, 540)">
    <circle cx="0" cy="0" r="60" fill="rgba(255,255,255,0.1)" stroke="rgba(255,255,255,0.3)" stroke-width="2"/>
    <polygon points="-20,-25 -20,25 25,0" fill="rgba(255,255,255,0.8)"/>
  </g>
  
  <!-- Title text -->
  <text x="960" y="800" text-anchor="middle" fill="#ffffff" font-family="Arial, sans-serif" font-size="48" font-weight="bold">
    cbot Demo Video
  </text>
  
  <!-- Subtitle -->
  <text x="960" y="850" text-anchor="middle" fill="rgba(255,255,255,0.7)" font-family="Arial, sans-serif" font-size="24">
    See Advanced Minecraft Features in Action
  </text>
  
  <!-- Floating particles -->
  <g opacity="0.3">
    <circle cx="200" cy="200" r="3" fill="#6366f1">
      <animate attributeName="cy" values="200;180;200" dur="3s" repeatCount="indefinite"/>
    </circle>
    <circle cx="1720" cy="300" r="4" fill="#8b5cf6">
      <animate attributeName="cy" values="300;280;300" dur="4s" repeatCount="indefinite"/>
    </circle>
    <circle cx="300" cy="800" r="2" fill="#6366f1">
      <animate attributeName="cy" values="800;820;800" dur="2.5s" repeatCount="indefinite"/>
    </circle>
    <circle cx="1600" cy="750" r="3" fill="#8b5cf6">
      <animate attributeName="cy" values="750;730;750" dur="3.5s" repeatCount="indefinite"/>
    </circle>
  </g>
  
  <!-- Corner decorations -->
  <g opacity="0.2">
    <rect x="0" y="0" width="100" height="100" fill="url(#logoGradient)" transform="rotate(45 50 50)"/>
    <rect x="1820" y="0" width="100" height="100" fill="url(#logoGradient)" transform="rotate(45 1870 50)"/>
    <rect x="0" y="980" width="100" height="100" fill="url(#logoGradient)" transform="rotate(45 50 1030)"/>
    <rect x="1820" y="980" width="100" height="100" fill="url(#logoGradient)" transform="rotate(45 1870 1030)"/>
  </g>
</svg>
