<svg width="24" height="24" viewBox="0 0 24 24" fill="none" xmlns="http://www.w3.org/2000/svg">
  <title>User Friendly</title>
  <defs>
    <linearGradient id="userGradient" x1="0%" y1="0%" x2="100%" y2="100%">
      <stop offset="0%" style="stop-color:#6366f1;stop-opacity:1" />
      <stop offset="100%" style="stop-color:#8b5cf6;stop-opacity:1" />
    </linearGradient>
  </defs>
  
  <!-- User head -->
  <circle cx="12" cy="8" r="4" 
          fill="url(#userGradient)" 
          stroke="currentColor" 
          stroke-width="0.5" 
          opacity="0.9"/>
  
  <!-- User body -->
  <path d="M4 20C4 16 7.58 13 12 13C16.42 13 20 16 20 20" 
        fill="url(#userGradient)" 
        stroke="currentColor" 
        stroke-width="0.5" 
        opacity="0.9"/>
  
  <!-- Smile -->
  <path d="M9.5 9.5C9.5 9.5 10.5 10.5 12 10.5C13.5 10.5 14.5 9.5 14.5 9.5" 
        stroke="white" 
        stroke-width="1.5" 
        stroke-linecap="round" 
        fill="none"/>
  
  <!-- Eyes -->
  <circle cx="10.5" cy="7.5" r="0.8" fill="white"/>
  <circle cx="13.5" cy="7.5" r="0.8" fill="white"/>
  
  <!-- Heart icon (friendly) -->
  <path d="M17 6C16.4 5.4 15.6 5.4 15 6C14.4 5.4 13.6 5.4 13 6C12.4 6.6 12.4 7.4 13 8L15 10L17 8C17.6 7.4 17.6 6.6 17 6Z" 
        fill="#ef4444" 
        opacity="0.8"/>
  
  <!-- Glow effect -->
  <circle cx="12" cy="8" r="3" 
          fill="none" 
          stroke="white" 
          stroke-width="0.5" 
          opacity="0.3"/>
</svg>
